<svg width="310" height="310" viewBox="0 0 310 310" fill="none" xmlns="http://www.w3.org/2000/svg">
<path fill-rule="evenodd" clip-rule="evenodd" d="M150.528 3.1157C147.938 3.40888 144.315 3.34486 141.586 3.53759C138.582 3.75007 135.902 4.19105 133.056 4.54792C118.296 6.40033 101.987 11.7386 89.3357 17.7842C63.5691 30.0969 43.58 48.2795 28.3603 70.6805C12.4533 94.0931 1.11105 129.238 3.05438 159.364C4.56321 182.754 7.49643 198.695 17.8179 220.41C21.7185 228.617 26.6373 237.099 32.0385 244.214C37.5263 251.442 39.1479 253.305 45.0191 259.718C57.5583 273.415 78.2386 287.877 95.4841 294.67C105.259 298.52 113.448 301.398 124.494 303.691C218.5 323.199 309.602 249.563 306.674 150.383C305.199 100.397 280.5 61.1109 249.95 36.4397C230.83 20.9986 209.669 11.3085 185.383 6.0421C176.706 4.16075 159.735 2.07372 150.528 3.1157ZM149.368 48.444C140.619 49.2258 134.212 49.9229 126.267 52.1386C94.8463 60.9018 67.7333 84.656 56.0423 114.87C50.7707 128.496 47.1623 144.342 48.3977 160.388C49.6797 177.045 53.0028 189.438 59.4638 202.424C65.6779 214.914 72.7106 223.508 82.2665 232.842C99.1303 249.314 129.352 263.493 160.382 261.263C183.466 259.604 201.64 252.912 218.953 239.995C233.82 228.902 246.836 212.368 253.636 194.905C258.878 181.442 262.526 165.574 261.225 149.179C258.861 119.363 248.179 96.4825 227.256 76.6862C218.156 68.0759 207.276 61.1804 194.723 55.9868C182.674 51.0013 164.313 47.1088 149.368 48.4444L149.368 48.444Z" fill="white" stroke="black" stroke-width="5.6754" stroke-miterlimit="2.61313"/>
<path fill-rule="evenodd" clip-rule="evenodd" d="M97.9591 35.312C99.5711 34.1576 98.2829 30.7372 101.892 30.2073C104.519 34.3282 101.06 35.5017 100.769 38.4376C103.83 38.5377 107.5 38.5088 107.791 41.8608C103.625 44.7924 101.324 40.3748 99.4645 40.6792C99.5067 44.0827 99.6146 47.4606 96.0968 47.8049C95.0214 45.833 95.7552 43.3063 96.7332 41.4338C97.2184 40.5042 97.5773 40.5434 97.594 39.5314C93.4414 39.2062 91.5989 40.2175 90.1152 36.1269C93.6597 34.9606 94.132 35.7264 97.0335 36.6386C95.49 32.8078 87.2743 31.4342 83.9069 34.4137C84.8566 40.0425 92.4805 40.383 96.7747 40.3854C96.172 41.5326 95.5213 41.5622 94.5638 42.9859C93.8906 43.9874 93.4084 45.1363 93.1343 46.388C92.5309 49.1425 93.1904 52.2391 94.1432 54.4004C99.5605 52.7193 100.538 47.9936 99.9977 41.4366C101.424 41.8193 106.958 48.4229 114.227 43.7235C113.903 41.7672 111.229 39.3836 109.751 38.6038C106.985 37.1453 104.262 38.0559 101.212 38.0562C101.552 37.1382 102.719 36.181 103.404 35.3277C104.246 34.2778 104.535 33.2355 104.999 31.8367C106.078 28.5817 104.905 26.0019 103.835 23.8274C100.437 24.1076 96.2292 31.2997 97.9587 35.3127L97.9591 35.312Z" fill="#672020"/>
<path fill-rule="evenodd" clip-rule="evenodd" d="M277.59 182.834C275.682 183.878 273.86 182.875 270.401 185.836C269.107 186.943 266.732 189.958 267.201 192.616C273.434 193.393 275.726 191.718 278.487 187.295L279.759 185.898C280.634 189.501 280.293 190.501 282.59 193.173C283.957 194.764 286.645 196.716 289.331 196.526C290.681 191.209 286.994 186.023 283.467 184.592C283.813 187.043 286.211 186.305 285.528 191.109C281.4 190.899 281.328 188.149 279.918 185.216C277.611 186.097 277.18 190.347 272.466 188.62C273.026 184.527 275.309 184.306 278.64 183.192C277.882 181.729 272.903 179.513 275.176 175.491C279.987 177.759 279.376 180.518 280.55 181.876C281.225 181.734 281.444 180.978 281.78 180.474C282.256 179.762 282.667 179.334 283.345 178.837C284.993 177.629 286.27 177.735 287.985 178.218C287.05 181.575 285.79 181.866 284.151 182.802L283.246 183.464C288.686 183.619 293.053 179.201 293.245 174.283C284.843 172.528 282.702 179.334 280.323 180.855C280.257 177.563 279.392 175.508 277.655 173.644C276.441 172.341 273.54 170.396 271.096 170.067C269.876 174.672 271.226 177.666 274.674 180.61C275.105 180.979 275.58 181.309 276.061 181.604C276.804 182.061 277.202 182.047 277.59 182.834H277.59Z" fill="#672020"/>
<path fill-rule="evenodd" clip-rule="evenodd" d="M253.541 73.0219C252.47 72.6368 250.977 70.4026 246.38 70.562C243.28 70.6696 241.417 72.1818 239.249 73.2221C239.876 75.1232 242.675 76.9433 244.869 77.3744C249.044 78.1947 251.407 76.1158 253.438 76.2337C252.413 78.4109 250.988 80.342 251.102 83.6294C251.184 86.0147 252.498 89.8721 254.359 90.5296C255.786 89.4815 257.689 87.0594 258.187 84.7919C258.952 81.3115 257.164 79.5908 256.914 76.6127C260.032 77.5416 259.875 79.0467 264.476 78.8802C267.417 78.7736 269.792 77.497 271.116 75.9074C270.736 74.1231 268.23 72.8251 266.288 72.2595C263.222 71.3663 261.123 72.0273 258.51 72.6443C259.033 73.1411 259.105 73.1728 260.208 73.2364C261.9 73.3342 263.698 73.2831 264.53 75.3752C262.023 78.9745 258.816 75.8744 256.33 76.2187C256.357 76.9198 258.233 83.47 254.359 83.8071C250.896 79.0743 254.085 78.9816 254.01 75.508C251.7 76.0188 246.378 77.261 246.145 73.5323C251.303 71.4685 252.968 73.516 254.181 73.5766C254.794 72.6 254.458 72.9596 254.045 71.7651C253.169 69.2302 253.789 66.7482 256.19 65.3603C258.668 69.1683 257.06 68.9653 257.138 72.6262C257.615 71.7177 258.264 71.2492 258.858 69.7226C259.391 68.351 259.578 67.1888 259.504 65.5244C259.389 62.9514 258.025 60.1783 256.487 58.9146C254.444 59.6215 253.034 62.1104 252.647 64.572C252.102 68.0344 253.267 70.0744 253.542 73.0222L253.541 73.0219Z" fill="#672020"/>
<path fill-rule="evenodd" clip-rule="evenodd" d="M26.1272 125.059C25.816 122.54 23.2879 123.013 24.1552 118.594C29.2545 118.839 27.9432 122.186 29.8667 124.457C31.3974 124.017 33.2631 118.939 37.2573 121.157C35.7029 127.167 33.4909 124.505 31.1495 126.711L31.8203 127.426C33.6066 128.995 36.2276 130.805 34.6013 134.124C31.822 133.41 30.6292 131.131 29.6141 128.779C29.1956 127.81 30.0288 128.648 29.0693 127.833C27.3524 128.735 27.1991 132.884 21.6705 131.444C22.6015 127.32 25.4274 127.587 26.4228 126.168C18.6058 126.173 15.7186 134.281 16.7677 135.362C19.2116 136.796 22.8354 135.085 24.3446 133.964C26.9812 132.006 28.1066 129.614 29.3951 128.78C29.4207 131.926 30.131 133.964 32.0018 136.016C33.1418 137.266 36.5719 139.516 38.6603 139.5C39.1935 136.322 39.2092 133.905 37.3414 131.475C34.5703 127.869 32.6855 128.238 32.1142 126.645C35.4424 126.091 37.147 125.829 39.3961 123.742C40.6288 122.598 43.0945 119.473 42.4816 117.031C33.7517 115.937 32.9345 120.451 30.7742 123.079L30.0094 123.818C29.4857 122.752 29.5807 121.08 29.0876 119.762C27.8495 116.452 24.3483 113.151 20.3738 113.147C19.0666 118.764 22.4796 123.156 26.1282 125.059H26.1272Z" fill="#672020"/>
<path fill-rule="evenodd" clip-rule="evenodd" d="M277.655 126.586C276.836 128.102 269.329 131.381 272.144 140.037C274.572 139.847 277.314 137.986 278.455 136.441C280.268 133.984 279.892 131.705 280.691 128.572C282.235 129.881 282.432 131.946 285.765 133.601C288.127 134.773 291.3 135.546 293.955 134.158C293.992 130.628 290.338 127.748 287.568 126.699L284.904 125.945C283.137 125.953 284.337 125.851 283.774 126.284C285.867 127.361 288.117 127.999 288.184 131.012C282.267 132.249 282.872 128.398 280.426 128.117C278.97 131.008 279.64 134.211 275.362 134.196C274.23 128.052 277.791 129.034 278.52 126.445C275.408 125.138 272.35 125.896 272.257 121.275C277.39 121.393 276.688 122.701 278.91 123.78C278.513 121.637 276.384 119.88 274.601 118.948C271.896 117.534 269.782 117.756 266.272 117.956C266.743 123.744 271.929 126.386 277.655 126.586H277.655Z" fill="#672020"/>
<path fill-rule="evenodd" clip-rule="evenodd" d="M209.604 268.16C207.765 267.681 208.427 267.328 206.715 266.12C202.363 263.048 196.025 264.795 195.485 266.023C195.346 267.415 198.601 270.43 199.873 271.09C203.16 272.797 205.49 271.332 208.548 271.715C206.783 274.267 205.746 274.15 204.752 277.616C203.777 281.013 204.572 283.512 205.845 285.843C210.537 285.232 212.995 277.185 211.801 274.138C210.369 274.863 211.494 278.583 207.84 279.577C205.008 274.312 209.219 273.917 208.791 271.254C205.55 271.105 201.981 271.052 201.929 267.649C207.738 265.495 207.129 268.761 210.108 269.193C210.212 267.406 209.983 265.667 210.616 264.145C211.075 263.042 212.181 261.691 213.789 261.965C214.491 265.84 213.801 265.878 212.747 268.833C217.107 267.137 217.695 258.909 215.526 255.298C213.514 255.622 211.425 257.753 210.534 259.496C209.225 262.055 209.519 264.98 209.605 268.16L209.604 268.16Z" fill="#672020"/>
<path fill-rule="evenodd" clip-rule="evenodd" d="M157.291 282.856C162.944 282.147 165.255 277.643 165.984 271.579C156.728 271.426 156.628 278.59 154.905 280.937C153.728 279.539 152.174 271.737 143.207 272.508C142.468 276.532 145.134 280.291 148.911 281.896L152.514 283.426C149.738 284.706 148.353 284.895 146.347 287.335C144.919 289.071 143.259 291.927 144.127 295.19C148.83 295.61 154.042 290.801 154.326 286.865C152.124 288.011 152.541 290.531 148.565 290.221C147.52 285.631 151.693 285.251 153 283.376C151.399 281.414 147.411 281.878 148.185 276.931C154.028 277.155 152.36 279.516 154.881 281.738L155.117 281.455C156.413 279.596 157.026 275.902 161.388 276.615C161.53 280.019 157.917 281.913 157.291 282.855L157.291 282.856Z" fill="#672020"/>
<path fill-rule="evenodd" clip-rule="evenodd" d="M155.278 22.8654C157.298 21.6616 157.606 19.0832 161.114 19.4312C162.359 24.1099 157.71 24.3296 156.752 26.4336C158.226 27.8345 162.294 28.3331 161.629 32.6498C156.486 33.5515 156.508 28.7553 154.615 28.0211C153.005 30.6411 152.711 33.6693 148.303 33.0615C148.374 29.5827 151.015 28.2762 152.252 26.9737C147.239 27.0043 143.872 32.8755 143.727 38.1083C147.209 38.2601 149.505 37.2059 151.147 35.4696C154.003 32.4506 153.823 29.8153 154.876 28.7975C156.362 31.7648 156.35 32.9365 158.873 34.9479C160.919 36.5787 163.287 37.479 166.471 37.1984C167.157 34.4572 165.177 31.095 163.984 29.8344C162.386 28.1458 159.76 27.4119 157.268 26.481C158.02 25.4189 158.825 25.7158 160.634 24.7317C161.665 24.1706 162.631 23.2549 163.348 22.4006C164.804 20.6677 166.294 17.6023 165.614 14.6078C161.092 13.5559 155.565 19.3424 155.278 22.8654Z" fill="#672020"/>
<path fill-rule="evenodd" clip-rule="evenodd" d="M212.737 35.6304C213.256 35.9825 212.601 35.8071 213.366 35.8541C213.883 35.8861 218.244 33.6598 219.124 35.6324C219.266 36.7902 218.066 38.0508 217.069 38.6232C215.779 39.3641 214.181 39.2664 212.448 39.595C212.147 41.6987 216.253 42.6168 214.221 47.4821C209.957 47.5631 210.189 41.5319 209.996 40.4402C208.875 40.8202 208.027 41.964 206.522 42.6951C204.564 43.6468 203.528 43.2576 201.931 42.4683C202.117 41.3511 203.167 40.4456 204.151 39.8109C204.6 39.5208 205.256 39.2552 205.871 39.0781C206.176 38.9906 206.533 38.9296 206.9 38.8108L207.795 38.4025C204.109 36.2253 196.868 40.6853 195.581 44.7862C197.568 46.2756 200.819 46.6938 203.529 45.5496C206.436 44.3217 206.881 43.4163 208.622 41.8823C209.219 41.3558 208.68 41.65 209.524 41.2482C209.824 45.3736 209.072 46.1895 211.039 49.5334C212.068 51.2816 214.524 53.6594 216.589 53.7544C218.619 50.1041 218.031 45.8997 215.274 42.9055C214.839 42.4332 214.588 42.1441 214.119 41.6814C213.111 40.6881 213.367 41.0112 212.966 40.0615C216.67 40.1089 218.017 40.3247 221.048 38.6262C222.828 37.6282 225.177 35.2895 225.362 33.0826C223.658 31.8159 220.641 31.6524 218.255 32.3549C215.314 33.2209 214.62 34.4025 212.736 35.6297L212.737 35.6304Z" fill="#672020"/>
<path fill-rule="evenodd" clip-rule="evenodd" d="M253.441 233.47C250.445 233.25 249.216 231.619 245.159 232.973C242.53 233.85 240.706 235.393 239.575 237.361C240.696 238.815 244.305 240.202 246.9 239.948C249.883 239.656 251.559 237.656 253.853 236.82C253.576 240.142 251.978 240.887 253.342 245.079C254.076 247.336 255.798 250.095 257.818 250.653C259.427 249.52 260.195 246.673 260.15 244.273C260.115 242.42 259.22 238.941 257.771 237.588C257.627 240.276 259.085 242.293 256.754 244.085C252.955 242.87 254.488 238.05 254.226 236.438C252.265 236.319 248.829 239.813 246.218 236.298C247.961 232.408 252.365 233.999 254.213 233.99C253.309 231.709 250.951 226.987 254.36 225.76C256.218 228.154 256.349 228.829 256.33 232.544C258.169 231.585 257.814 226.748 257.192 224.691C256.595 222.716 254.751 220.594 253.295 219.102C251.622 219.558 248.885 224.187 251.705 230.19C252.111 231.054 253.415 232.684 253.441 233.471V233.47Z" fill="#672020"/>
<path fill-rule="evenodd" clip-rule="evenodd" d="M51.9537 72.2247C52.063 69.392 50.5671 67.4633 53.0073 65.5462C54.0486 66.0335 55.1444 67.136 55.4338 68.494C55.7924 70.1762 55.1021 72.0749 55.4011 73.1462C57.2099 73.3719 61.4742 69.8241 63.4475 73.5133C61.3435 77.3713 57.2314 75.5063 55.5067 75.7491C55.6599 76.7328 56.7942 78.318 57.0931 79.7533C57.5147 81.7786 56.7005 83.3917 55.4011 83.9321C54.6435 83.2197 54.1776 82.4627 53.7152 81.3118C53.5055 80.7904 53.3927 80.3148 53.3543 79.6395C53.3032 78.7463 53.4408 78.0813 53.0073 77.4568C51.0367 80.2538 51.8839 85.3592 54.2716 88.1987C55.0947 89.1774 55.901 90.3066 56.7312 90.5671C58.3531 89.0449 59.55 86.5435 59.1802 83.3539C58.7807 79.9116 57.2317 78.7746 56.2265 76.3436C59.6862 76.4029 60.1878 78.0748 64.6458 76.6433C66.7237 75.9762 69.55 74.1368 70.0168 72.1832C68.5226 70.7632 65.4426 69.4288 62.5792 69.7693C60.3056 70.04 57.6414 71.9619 55.9153 72.917C55.8523 69.7768 57.6873 69.0889 56.3304 64.6149C55.5601 62.0749 54.0544 59.9528 51.9435 59.0229C48.6575 61.2322 48.9064 69.2251 51.9537 72.2237V72.2247Z" fill="#672020"/>
<path fill-rule="evenodd" clip-rule="evenodd" d="M28.8023 180.958C26.1204 178.216 24.694 173.462 15.7322 175.399C15.7084 181.055 23.9237 184.482 25.8555 183.632C24.2401 181.837 21.6688 182.301 21.5139 178.844C25.2725 176.673 27.2318 180.906 29.0683 181.647C29.7152 180.904 29.9502 178.849 30.5597 177.679C31.1869 176.475 32.5119 175.153 34.3878 175.706C35.6293 180.451 32.421 180.8 31.1532 183.1C31.2132 183.14 31.3146 183.107 31.349 183.192C31.3834 183.278 31.4999 183.262 31.5482 183.279C33.9377 184.126 37.7188 184.3 37.3816 188.468C32.5136 188.314 32.6607 186.758 30.7164 185.848C31.3089 189.757 38.2595 193.208 43.2477 191.611C43.4817 188.814 41.3507 186.444 39.6359 185.289C36.8586 183.418 35.0368 183.74 31.8724 182.986C33.7953 180.997 35.6413 180.564 36.8957 177.901C37.9942 175.568 38.8387 171.895 37.3697 169.556C28.8258 172.025 30.0575 177.057 29.2617 180.072C28.913 181.393 29.1343 180.595 28.8016 180.957L28.8023 180.958Z" fill="#672020"/>
<path fill-rule="evenodd" clip-rule="evenodd" d="M96.7521 269.699C93.1072 269.626 91.4836 269.394 88.6001 271.093C86.887 272.103 84.4707 274.287 84.3403 276.782C87.2119 277.636 88.3873 278.272 91.609 277.284C93.5625 276.685 96.1191 275.243 96.9581 273.692C94.4768 273.946 93.0078 275.987 90.5074 274.067C91.0239 269.797 96.0207 270.856 97.5397 269.696C97.0562 269.197 95.8229 267.517 95.4405 266.731C94.4301 264.655 94.8663 263.812 95.5743 262.058C96.9067 262.257 98.3032 263.431 98.8487 264.399C99.6043 265.739 99.4048 267.845 99.7987 269.342C102.062 267.991 104.497 264.746 107.788 267.417C106.914 270.574 102.658 270.301 102.158 271.407C106.368 273.132 112.003 269.426 114.041 265.023C113.605 264.539 113.469 264.372 112.504 264.027C105.71 261.597 101.774 267.841 100.117 268.511C99.9469 264.538 100.472 263.386 98.7142 260.272C97.7052 258.485 95.3662 256.145 93.1709 255.948C91.8742 257.865 91.4448 261.683 92.5515 264.063C93.6899 266.512 96.2604 268.184 96.7518 269.698L96.7521 269.699Z" fill="#672020"/>
<path fill-rule="evenodd" clip-rule="evenodd" d="M52.8418 232.977C49.9985 232.486 49.7833 230.565 45.0137 230.846C42.4441 230.997 39.6366 232.134 38.4744 233.903C39.9277 236.89 44.1007 238.008 47.7048 237.801C48.3793 237.762 48.9919 237.658 49.4567 237.531C49.5882 237.496 50.0727 237.356 50.2406 237.29L51.2322 236.758C48.8547 236.165 45.7795 236.698 45.1519 234.169C48.3756 230.631 51.0561 233.935 53.3631 233.462C53.3611 232.182 51.3221 227.061 55.1345 225.859C57.8587 228.095 56.6849 230.631 55.6518 233.637C55.9422 233.88 55.534 234.046 57.1116 233.898L56.5841 233.537C56.2082 233.119 56.518 233.807 56.3427 233.105C59.4213 228.368 59.5524 223.32 55.6671 219.161C54.2516 219.426 52.1227 222.575 51.6074 224.525C50.6969 227.971 52.3195 230.008 52.8418 232.977V232.977Z" fill="#672020"/>
<path fill-rule="evenodd" clip-rule="evenodd" d="M256.296 233.637C256.995 233.97 257.351 233.412 257.972 233.04C260.268 231.665 262.896 231.716 264.614 233.823C261.73 236.133 262.303 235.953 257.855 236.149C261.938 239.33 269.174 236.405 270.943 232.574C270.523 231.876 270.477 231.835 269.68 231.341C265.331 228.644 261.286 230.868 257.673 232.405C256.288 232.994 256.295 232.504 256.296 233.637Z" fill="#672020"/>
<path fill-rule="evenodd" clip-rule="evenodd" d="M30.1323 185.052C29.0583 185.346 29.5255 185.621 29.3059 187.048C29.168 187.943 28.8615 188.695 28.4267 189.365C27.7293 190.439 26.5412 191.465 24.7174 191.443C23.9209 187.939 25.5847 186.946 26.7496 184.872C23.0788 185.532 20.0074 191.505 21.2547 196.252C21.5509 197.381 21.445 197.4 22.801 197.119C28.9957 195.834 30.6353 185.777 30.1327 185.052H30.1323Z" fill="#672020"/>
<path fill-rule="evenodd" clip-rule="evenodd" d="M100.772 271.281C100.204 272.708 103.569 273.251 103.231 277.252C103.195 277.677 103.167 277.953 102.999 278.338L102.214 279.293C98.685 277.457 99.1447 274.961 98.4905 273.601C96.0514 275.99 100.657 285.675 105.14 285.213C106.602 282.698 106.414 279.487 105.188 276.935C104.746 276.014 102.034 271.642 100.93 271.297C100.904 271.289 100.824 271.272 100.771 271.281L100.772 271.281Z" fill="#672020"/>
<path fill-rule="evenodd" clip-rule="evenodd" d="M279.894 124.587C280.644 124.013 280.151 117.906 285.098 118.287C285.158 119.539 285.221 120.809 284.771 121.963C284.234 123.342 283.493 123.574 282.934 124.899C286.983 123.826 290.06 117.472 288.088 112.453C285.02 112.464 282.997 114.612 281.76 116.617C280.703 118.332 280.147 120.502 279.681 122.492C279.671 122.536 279.395 123.65 279.394 123.666C279.297 125.003 279.09 124.305 279.894 124.587L279.894 124.587Z" fill="#672020"/>
<path fill-rule="evenodd" clip-rule="evenodd" d="M38.7178 77.2372C42.2016 81.2907 47.5648 79.332 51.8012 77.3683C53.1949 76.7223 53.1295 76.8997 53.3747 76.1734L52.4754 76.1301C52.4747 76.1305 47.5025 79.632 45.1396 75.9074C46.88 73.7993 48.4208 73.5875 51.7371 73.5432C51.2373 73.0049 50.9124 72.9286 50.1054 72.6643C45.2019 71.0571 39.5242 74.388 38.7175 77.2375L38.7178 77.2372Z" fill="#672020"/>
<path fill-rule="evenodd" clip-rule="evenodd" d="M157.291 282.855C156.215 283.059 156.849 282.726 156.488 283.377C157.237 284.79 161.953 284.207 161.701 289.714C158.113 290.138 156.652 287.122 155.565 286.451C156.05 291.127 161.178 294.663 166.548 294.186C167.208 289.482 164.068 286.714 160.661 284.772C158.684 283.644 158.07 283.763 157.291 282.855Z" fill="#672020"/>
<path fill-rule="evenodd" clip-rule="evenodd" d="M53.5392 244.138C51.0071 241.83 52.5462 238.204 52.6474 237.139C49.3229 239.484 49.4073 248.28 53.2732 250.735C56.6781 249.619 57.7068 244.388 56.8456 240.245L56.2286 237.088C55.9068 236.046 56.6086 236.766 55.6674 236.192C54.3479 237.106 56.2197 237.222 55.9844 240.565C55.8601 242.328 54.9407 243.696 53.5395 244.138H53.5392Z" fill="#672020"/>
<path fill-rule="evenodd" clip-rule="evenodd" d="M212.077 269.812C212.827 270.441 212.191 270.093 214.469 270.056C216.752 270.019 218.967 271.204 219.455 273.536C216.362 275.199 214.781 273.515 212.488 272.998C213.275 274.547 215.887 276.25 218.275 276.706C220.731 277.176 224.366 276.828 225.832 275.132C223.926 269.855 219.118 269.48 214.456 269.397C214.25 269.393 213.251 269.372 213.12 269.39C211.533 269.601 212.574 269.314 212.077 269.812L212.077 269.812Z" fill="#672020"/>
<path fill-rule="evenodd" clip-rule="evenodd" d="M207.28 30.4096C208.766 30.6908 210.104 32.3369 210.581 33.7613C210.681 34.0609 210.71 34.3 210.812 34.5557L211.452 35.6787C212.684 30.8767 208.859 24.8857 204.611 24.2891C203.676 26.4228 202.879 27.964 203.808 31.0106C204.389 32.9137 205.751 34.963 206.758 36.2671C207.13 36.7497 208.285 38.3688 208.551 38.4659C211.795 39.6464 203.871 34.7474 207.28 30.4096H207.28Z" fill="#672020"/>
<path fill-rule="evenodd" clip-rule="evenodd" d="M153.125 26.4336C152.859 25.7564 153.046 26.0598 152.408 25.706C151.523 25.2153 147.372 24.2816 148.089 19.9015C150.637 19.7925 151.93 20.9459 153.385 22.6042L154.162 23.3605C153.737 18.8646 148.887 15.0553 143.146 15.534C142.309 21.552 147.331 23.9908 151.277 26.0581C153.354 27.1464 152.724 26.6792 153.125 26.4333V26.4336Z" fill="#672020"/>
<path fill-rule="evenodd" clip-rule="evenodd" d="M57.1033 233.729C62.0449 233.23 61.8293 233.399 63.7621 235.908C60.9256 237.671 59.9255 236.853 56.6596 236.739L56.9579 237.068C58.6676 238.751 61.48 239.299 63.899 239.12C65.6782 238.988 69.427 237.346 70.4312 236.297C67.5991 230.725 58.6435 231.787 57.103 233.729H57.1033Z" fill="#672020"/>
</svg>
